<?xml version="1.0" encoding="UTF-8" standalone="no"?>
<!DOCTYPE svg PUBLIC "-//W3C//DTD SVG 1.1//EN"
 "http://www.w3.org/Graphics/SVG/1.1/DTD/svg11.dtd">
<!-- Generated by graphviz version 2.46.0 (20210118.1747)
 -->
<!-- Pages: 1 -->
<svg width="288pt" height="236pt"
 viewBox="0.00 0.00 288.00 236.50" xmlns="http://www.w3.org/2000/svg" xmlns:xlink="http://www.w3.org/1999/xlink">
<g id="graph0" class="graph" transform="scale(1 1) rotate(0) translate(4 232.5)">
<polygon fill="white" stroke="transparent" points="-4,4 -4,-232.5 284,-232.5 284,4 -4,4"/>
<!-- 24 -->
<g id="node1" class="node">
<title>24</title>
<path fill="none" stroke="black" d="M12,-115C12,-115 48,-115 48,-115 54,-115 60,-121 60,-127 60,-127 60,-140 60,-140 60,-146 54,-152 48,-152 48,-152 12,-152 12,-152 6,-152 0,-146 0,-140 0,-140 0,-127 0,-127 0,-121 6,-115 12,-115"/>
<text text-anchor="middle" x="15" y="-129.8" font-family="Times,serif" font-size="14.00">24</text>
<polyline fill="none" stroke="black" points="30,-115 30,-152 "/>
<text text-anchor="middle" x="45" y="-129.8" font-family="Times,serif" font-size="14.00">29</text>
</g>
<!-- 21 -->
<g id="node2" class="node">
<title>21</title>
<path fill="none" stroke="black" d="M122,-77C122,-77 158,-77 158,-77 164,-77 170,-83 170,-89 170,-89 170,-102 170,-102 170,-108 164,-114 158,-114 158,-114 122,-114 122,-114 116,-114 110,-108 110,-102 110,-102 110,-89 110,-89 110,-83 116,-77 122,-77"/>
<text text-anchor="middle" x="125" y="-91.8" font-family="Times,serif" font-size="14.00">21</text>
<polyline fill="none" stroke="black" points="140,-77 140,-114 "/>
<text text-anchor="middle" x="155" y="-91.8" font-family="Times,serif" font-size="14.00">28</text>
</g>
<!-- 24&#45;&gt;21 -->
<g id="edge1" class="edge">
<title>24&#45;&gt;21</title>
<path fill="none" stroke="black" d="M60.23,-123.22C73.67,-118.48 89.74,-112.83 103.84,-107.87"/>
<polygon fill="black" stroke="black" points="104.79,-109.76 109.75,-105.79 103.39,-105.8 104.79,-109.76"/>
<text text-anchor="middle" x="85" y="-120.3" font-family="Times,serif" font-size="14.00">25</text>
</g>
<!-- 22 -->
<g id="node3" class="node">
<title>22</title>
<path fill="none" stroke="black" d="M232,-149C232,-149 268,-149 268,-149 274,-149 280,-155 280,-161 280,-161 280,-174 280,-174 280,-180 274,-186 268,-186 268,-186 232,-186 232,-186 226,-186 220,-180 220,-174 220,-174 220,-161 220,-161 220,-155 226,-149 232,-149"/>
<text text-anchor="middle" x="235" y="-163.8" font-family="Times,serif" font-size="14.00">22</text>
<polyline fill="none" stroke="black" points="250,-149 250,-186 "/>
<text text-anchor="middle" x="265" y="-163.8" font-family="Times,serif" font-size="14.00">20</text>
</g>
<!-- 24&#45;&gt;22 -->
<g id="edge2" class="edge">
<title>24&#45;&gt;22</title>
<path fill="none" stroke="black" d="M39.48,-151.52C47.35,-166.12 60.47,-185.93 78,-196.5 125.2,-224.95 150.3,-215.6 202,-196.5 207.53,-194.46 213.12,-191.72 218.41,-188.74"/>
<polygon fill="black" stroke="black" points="219.48,-190.54 223.6,-185.7 217.36,-186.92 219.48,-190.54"/>
<text text-anchor="middle" x="140" y="-217.3" font-family="Times,serif" font-size="14.00">26</text>
</g>
<!-- 23 -->
<g id="node4" class="node">
<title>23</title>
<path fill="none" stroke="black" d="M232,-1C232,-1 268,-1 268,-1 274,-1 280,-7 280,-13 280,-13 280,-26 280,-26 280,-32 274,-38 268,-38 268,-38 232,-38 232,-38 226,-38 220,-32 220,-26 220,-26 220,-13 220,-13 220,-7 226,-1 232,-1"/>
<text text-anchor="middle" x="235" y="-15.8" font-family="Times,serif" font-size="14.00">23</text>
<polyline fill="none" stroke="black" points="250,-1 250,-38 "/>
<text text-anchor="middle" x="265" y="-15.8" font-family="Times,serif" font-size="14.00">20</text>
</g>
<!-- 24&#45;&gt;23 -->
<g id="edge3" class="edge">
<title>24&#45;&gt;23</title>
<path fill="none" stroke="black" d="M44.42,-115.21C68.77,-83.93 123.7,-21.65 188,-2.5 196.39,0 205.46,-0.7 213.98,-2.85"/>
<polygon fill="black" stroke="black" points="213.42,-4.88 219.77,-4.55 214.6,-0.85 213.42,-4.88"/>
<text text-anchor="middle" x="140" y="-50.3" font-family="Times,serif" font-size="14.00">27</text>
</g>
<!-- 21&#45;&gt;24 -->
<g id="edge4" class="edge">
<title>21&#45;&gt;24</title>
<path fill="none" stroke="black" d="M109.71,-89.37C99.41,-88.42 87.93,-88.78 78,-92.5 67.76,-96.34 58.28,-103.53 50.56,-110.84"/>
<polygon fill="black" stroke="black" points="48.77,-109.66 45.98,-115.37 51.72,-112.64 48.77,-109.66"/>
<text text-anchor="middle" x="85" y="-96.3" font-family="Times,serif" font-size="14.00">25</text>
</g>
<!-- 21&#45;&gt;22 -->
<g id="edge5" class="edge">
<title>21&#45;&gt;22</title>
<path fill="none" stroke="black" d="M164.59,-113.75C171.98,-119.28 180.24,-125.27 188,-130.5 196.42,-136.17 205.71,-142.01 214.44,-147.32"/>
<polygon fill="black" stroke="black" points="213.57,-149.25 219.79,-150.55 215.74,-145.65 213.57,-149.25"/>
<text text-anchor="middle" x="195" y="-142.3" font-family="Times,serif" font-size="14.00">27</text>
</g>
<!-- 21&#45;&gt;23 -->
<g id="edge6" class="edge">
<title>21&#45;&gt;23</title>
<path fill="none" stroke="black" d="M168.52,-77.41C179.07,-70.37 191.17,-62.17 202,-54.5 207.97,-50.27 214.29,-45.66 220.3,-41.22"/>
<polygon fill="black" stroke="black" points="221.69,-42.8 225.25,-37.53 219.18,-39.43 221.69,-42.8"/>
<text text-anchor="middle" x="195" y="-67.3" font-family="Times,serif" font-size="14.00">26</text>
</g>
<!-- 22&#45;&gt;24 -->
<g id="edge7" class="edge">
<title>22&#45;&gt;24</title>
<path fill="none" stroke="black" d="M219.72,-162.93C180.01,-156.74 109.17,-145.69 66.49,-139.03"/>
<polygon fill="black" stroke="black" points="66.65,-136.93 60.4,-138.08 66,-141.08 66.65,-136.93"/>
<text text-anchor="middle" x="140" y="-158.3" font-family="Times,serif" font-size="14.00">26</text>
</g>
<!-- 22&#45;&gt;21 -->
<g id="edge8" class="edge">
<title>22&#45;&gt;21</title>
<path fill="none" stroke="black" d="M238.04,-149.28C229.66,-136.86 217.01,-121.01 202,-111.5 194.26,-106.6 185.06,-103.19 176.18,-100.82"/>
<polygon fill="black" stroke="black" points="176.44,-98.72 170.11,-99.35 175.45,-102.8 176.44,-98.72"/>
<text text-anchor="middle" x="195" y="-115.3" font-family="Times,serif" font-size="14.00">27</text>
</g>
<!-- 22&#45;&gt;22 -->
<g id="edge9" class="edge">
<title>22&#45;&gt;22</title>
<path fill="none" stroke="black" d="M240.29,-185.53C238.64,-195.19 241.88,-204 250,-204 256.34,-204 259.71,-198.62 260.09,-191.66"/>
<polygon fill="black" stroke="black" points="262.18,-191.39 259.71,-185.53 257.99,-191.65 262.18,-191.39"/>
<text text-anchor="middle" x="250" y="-207.8" font-family="Times,serif" font-size="14.00">25</text>
</g>
<!-- 23&#45;&gt;21 -->
<g id="edge10" class="edge">
<title>23&#45;&gt;21</title>
<path fill="none" stroke="black" d="M219.78,-23.18C209.14,-25.51 197.42,-29.31 188,-35.5 173.97,-44.72 162.3,-59.54 154.1,-72.14"/>
<polygon fill="black" stroke="black" points="152.22,-71.19 150.8,-77.38 155.77,-73.42 152.22,-71.19"/>
<text text-anchor="middle" x="195" y="-39.3" font-family="Times,serif" font-size="14.00">27</text>
</g>
<!-- 23&#45;&gt;21 -->
<g id="edge11" class="edge">
<title>23&#45;&gt;21</title>
<path fill="none" stroke="black" d="M219.86,-7.7C209.23,-5.26 197.5,-4.9 188,-10.5 165.79,-23.6 153.34,-51.37 146.92,-71.62"/>
<polygon fill="black" stroke="black" points="144.91,-71.02 145.19,-77.37 148.93,-72.23 144.91,-71.02"/>
<text text-anchor="middle" x="195" y="-14.3" font-family="Times,serif" font-size="14.00">26</text>
</g>
<!-- 23&#45;&gt;23 -->
<g id="edge12" class="edge">
<title>23&#45;&gt;23</title>
<path fill="none" stroke="black" d="M240.29,-37.53C238.64,-47.19 241.88,-56 250,-56 256.34,-56 259.71,-50.62 260.09,-43.66"/>
<polygon fill="black" stroke="black" points="262.18,-43.39 259.71,-37.53 257.98,-43.65 262.18,-43.39"/>
<text text-anchor="middle" x="250" y="-59.8" font-family="Times,serif" font-size="14.00">25</text>
</g>
</g>
</svg>
