<?xml version="1.0" encoding="UTF-8" standalone="no"?>
<!DOCTYPE svg PUBLIC "-//W3C//DTD SVG 1.1//EN"
 "http://www.w3.org/Graphics/SVG/1.1/DTD/svg11.dtd">
<!-- Generated by graphviz version 2.46.0 (20210118.1747)
 -->
<!-- Pages: 1 -->
<svg width="159pt" height="80pt"
 viewBox="0.00 0.00 159.00 80.22" xmlns="http://www.w3.org/2000/svg" xmlns:xlink="http://www.w3.org/1999/xlink">
<g id="graph0" class="graph" transform="scale(1 1) rotate(0) translate(4 76.22)">
<polygon fill="white" stroke="transparent" points="-4,4 -4,-76.22 155,-76.22 155,4 -4,4"/>
<!-- 1 -->
<g id="node1" class="node">
<title>1</title>
<path fill="none" stroke="black" d="M12,-2.22C12,-2.22 42,-2.22 42,-2.22 48,-2.22 54,-8.22 54,-14.22 54,-14.22 54,-27.22 54,-27.22 54,-33.22 48,-39.22 42,-39.22 42,-39.22 12,-39.22 12,-39.22 6,-39.22 0,-33.22 0,-27.22 0,-27.22 0,-14.22 0,-14.22 0,-8.22 6,-2.22 12,-2.22"/>
<text text-anchor="middle" x="13.5" y="-17.02" font-family="Times,serif" font-size="14.00">1</text>
<polyline fill="none" stroke="black" points="27,-2.22 27,-39.22 "/>
<text text-anchor="middle" x="40.5" y="-17.02" font-family="Times,serif" font-size="14.00">5</text>
</g>
<!-- 1&#45;&gt;1 -->
<g id="edge1" class="edge">
<title>1&#45;&gt;1</title>
<path fill="none" stroke="black" d="M18.37,-38.75C16.91,-48.42 19.78,-57.22 27,-57.22 32.64,-57.22 35.63,-51.85 35.97,-44.89"/>
<polygon fill="black" stroke="black" points="38.06,-44.62 35.63,-38.75 33.86,-44.86 38.06,-44.62"/>
<text text-anchor="middle" x="27" y="-61.02" font-family="Times,serif" font-size="14.00">3</text>
</g>
<!-- 2 -->
<g id="node2" class="node">
<title>2</title>
<path fill="none" stroke="black" d="M109,-2.22C109,-2.22 139,-2.22 139,-2.22 145,-2.22 151,-8.22 151,-14.22 151,-14.22 151,-27.22 151,-27.22 151,-33.22 145,-39.22 139,-39.22 139,-39.22 109,-39.22 109,-39.22 103,-39.22 97,-33.22 97,-27.22 97,-27.22 97,-14.22 97,-14.22 97,-8.22 103,-2.22 109,-2.22"/>
<text text-anchor="middle" x="110.5" y="-17.02" font-family="Times,serif" font-size="14.00">2</text>
<polyline fill="none" stroke="black" points="124,-2.22 124,-39.22 "/>
<text text-anchor="middle" x="137.5" y="-17.02" font-family="Times,serif" font-size="14.00">6</text>
</g>
<!-- 1&#45;&gt;2 -->
<g id="edge2" class="edge">
<title>1&#45;&gt;2</title>
<path fill="none" stroke="black" d="M54.21,-20.72C65.53,-20.72 78.88,-20.72 90.79,-20.72"/>
<polygon fill="black" stroke="black" points="90.88,-22.82 96.88,-20.72 90.87,-18.62 90.88,-22.82"/>
<text text-anchor="middle" x="75.5" y="-24.52" font-family="Times,serif" font-size="14.00">4</text>
</g>
<!-- 2&#45;&gt;1 -->
<g id="edge3" class="edge">
<title>2&#45;&gt;1</title>
<path fill="none" stroke="black" d="M96.98,-4.94C89.1,-1.84 80.33,0 72,-1.72 68.06,-2.54 64.03,-3.72 60.1,-5.11"/>
<polygon fill="black" stroke="black" points="59.29,-3.17 54.42,-7.26 60.78,-7.1 59.29,-3.17"/>
<text text-anchor="middle" x="75.5" y="-5.52" font-family="Times,serif" font-size="14.00">4</text>
</g>
<!-- 2&#45;&gt;2 -->
<g id="edge4" class="edge">
<title>2&#45;&gt;2</title>
<path fill="none" stroke="black" d="M115.37,-38.75C113.91,-48.42 116.78,-57.22 124,-57.22 129.64,-57.22 132.63,-51.85 132.97,-44.89"/>
<polygon fill="black" stroke="black" points="135.06,-44.62 132.63,-38.75 130.87,-44.86 135.06,-44.62"/>
<text text-anchor="middle" x="124" y="-61.02" font-family="Times,serif" font-size="14.00">3</text>
</g>
</g>
</svg>
